<?xml version="1.0" encoding="UTF-8" standalone="no"?>
<svg
   xmlns:dc="http://purl.org/dc/elements/1.1/"
   xmlns:cc="http://creativecommons.org/ns#"
   xmlns:rdf="http://www.w3.org/1999/02/22-rdf-syntax-ns#"
   xmlns:svg="http://www.w3.org/2000/svg"
   xmlns="http://www.w3.org/2000/svg"
   xmlns:sodipodi="http://sodipodi.sourceforge.net/DTD/sodipodi-0.dtd"
   xmlns:inkscape="http://www.inkscape.org/namespaces/inkscape"
   version="1.0"
   width="16"
   height="16"
   id="svg2"
   inkscape:version="0.47 r22583"
   sodipodi:docname="Silver_medal_icon.svg">
  <metadata
     id="metadata14">
    <rdf:RDF>
      <cc:Work
         rdf:about="">
        <dc:format>image/svg+xml</dc:format>
        <dc:type
           rdf:resource="http://purl.org/dc/dcmitype/StillImage" />
      </cc:Work>
    </rdf:RDF>
  </metadata>
  <defs
     id="defs12">
    <inkscape:perspective
       sodipodi:type="inkscape:persp3d"
       inkscape:vp_x="0 : 8 : 1"
       inkscape:vp_y="0 : 1000 : 0"
       inkscape:vp_z="16 : 8 : 1"
       inkscape:persp3d-origin="8 : 5.3333333 : 1"
       id="perspective16" />
  </defs>
  <sodipodi:namedview
     pagecolor="#ffffff"
     bordercolor="#666666"
     borderopacity="1"
     objecttolerance="10"
     gridtolerance="10"
     guidetolerance="10"
     inkscape:pageopacity="0"
     inkscape:pageshadow="2"
     inkscape:window-width="1440"
     inkscape:window-height="850"
     id="namedview10"
     showgrid="false"
     inkscape:zoom="14.75"
     inkscape:cx="8"
     inkscape:cy="8"
     inkscape:window-x="-8"
     inkscape:window-y="-8"
     inkscape:window-maximized="1"
     inkscape:current-layer="svg2" />
  <circle
     sodipodi:ry="7.5"
     sodipodi:rx="7.5"
     sodipodi:cy="8"
     sodipodi:cx="8"
     id="circle6"
     style="fill:#c0c0c0;stroke:#888888"
     r="7.5"
     cy="8"
     cx="8" />
  <path
     id="path2816"
     style="font-size:11px;font-weight:bold;text-anchor:middle;font-family:Arial"
     d="m 10.645264,10.55127 0,1.401855 -5.2905277,0 C 5.4120277,11.423178 5.5839025,10.920981 5.8703613,10.446533 6.1568186,9.9720886 6.7225732,9.342776 7.567627,8.5585938 8.2479623,7.9248087 8.6651169,7.4951216 8.8190918,7.2695312 9.0267701,6.9580128 9.1306112,6.6500704 9.1306152,6.3457031 9.1306112,6.0091205 9.0401979,5.7504131 8.859375,5.5695801 8.6785446,5.3887598 8.428789,5.2983465 8.1101074,5.2983398 7.7950005,5.2983465 7.5443497,5.3932357 7.3581543,5.5830078 7.1719543,5.7727926 7.0645325,6.0878965 7.0358887,6.5283203 L 5.5319824,6.3779297 C 5.6215001,5.5472069 5.9025871,4.9510161 6.3752441,4.5893555 6.8478986,4.2277095 7.4387183,4.0468829 8.1477051,4.046875 c 0.7770144,7.9e-6 1.3875281,0.2094804 1.8315429,0.628418 0.444005,0.4189521 0.66601,0.9399477 0.666016,1.5629882 -6e-6,0.3544976 -0.06356,0.691981 -0.190674,1.0124512 C 10.327469,7.5712121 10.126053,7.9069051 9.8503418,8.2578125 9.66772,8.4905634 9.3382933,8.8253612 8.8620605,9.262207 8.3858203,9.6990582 8.0841441,9.989097 7.9570312,10.132324 7.8299126,10.275555 7.7269668,10.415203 7.6481934,10.55127 z" />
</svg>
