<?xml version="1.0" encoding="UTF-8" standalone="no"?>
<svg
   xmlns:dc="http://purl.org/dc/elements/1.1/"
   xmlns:cc="http://creativecommons.org/ns#"
   xmlns:rdf="http://www.w3.org/1999/02/22-rdf-syntax-ns#"
   xmlns:svg="http://www.w3.org/2000/svg"
   xmlns="http://www.w3.org/2000/svg"
   xmlns:sodipodi="http://sodipodi.sourceforge.net/DTD/sodipodi-0.dtd"
   xmlns:inkscape="http://www.inkscape.org/namespaces/inkscape"
   version="1.0"
   width="16"
   height="16"
   id="svg2"
   inkscape:version="0.47 r22583"
   sodipodi:docname="Bronze_medal_icon.svg">
  <metadata
     id="metadata14">
    <rdf:RDF>
      <cc:Work
         rdf:about="">
        <dc:format>image/svg+xml</dc:format>
        <dc:type
           rdf:resource="http://purl.org/dc/dcmitype/StillImage" />
      </cc:Work>
    </rdf:RDF>
  </metadata>
  <defs
     id="defs12">
    <inkscape:perspective
       sodipodi:type="inkscape:persp3d"
       inkscape:vp_x="0 : 8 : 1"
       inkscape:vp_y="0 : 1000 : 0"
       inkscape:vp_z="16 : 8 : 1"
       inkscape:persp3d-origin="8 : 5.3333333 : 1"
       id="perspective16" />
  </defs>
  <sodipodi:namedview
     pagecolor="#ffffff"
     bordercolor="#666666"
     borderopacity="1"
     objecttolerance="10"
     gridtolerance="10"
     guidetolerance="10"
     inkscape:pageopacity="0"
     inkscape:pageshadow="2"
     inkscape:window-width="1440"
     inkscape:window-height="850"
     id="namedview10"
     showgrid="false"
     inkscape:zoom="14.75"
     inkscape:cx="8"
     inkscape:cy="8"
     inkscape:window-x="-8"
     inkscape:window-y="-8"
     inkscape:window-maximized="1"
     inkscape:current-layer="svg2" />
  <circle
     sodipodi:ry="7.5"
     sodipodi:rx="7.5"
     sodipodi:cy="8"
     sodipodi:cx="8"
     id="circle6"
     style="fill:#cc9966;stroke:#a97038"
     r="7.5"
     cy="8"
     cx="8" />
  <path
     id="path2816"
     style="font-size:11px;font-style:normal;font-variant:normal;font-weight:bold;font-stretch:normal;text-align:center;line-height:125%;writing-mode:lr-tb;text-anchor:middle;font-family:Arial;-inkscape-font-specification:Arial Bold"
     d="M 5.3842773,9.7966309 6.8452148,9.6193848 c 0.046548,0.3723977 0.171873,0.6570652 0.3759766,0.8540042 0.2040991,0.196941 0.4511692,0.295411 0.7412109,0.29541 0.3115202,1e-6 0.5738083,-0.118163 0.7868653,-0.354492 C 8.962317,10.17798 9.0688436,9.8592956 9.0688477,9.458252 9.0688436,9.0786975 8.9667929,8.7779165 8.7626953,8.5559082 8.5585902,8.3339065 8.3097297,8.2229041 8.0161133,8.2229004 c -0.1933622,3.7e-6 -0.424319,0.037601 -0.6928711,0.112793 L 7.4897461,7.1057129 C 7.8979463,7.1164598 8.2094694,7.0278369 8.4243164,6.8398437 8.6391565,6.6518607 8.7465783,6.4021051 8.746582,6.0905762 8.7465783,5.8256083 8.6678023,5.6143455 8.5102539,5.4567871 8.3526984,5.2992416 8.143226,5.2204656 7.8818359,5.220459 7.6240208,5.2204656 7.4038062,5.3099838 7.2211914,5.4890137 7.0385722,5.6680563 6.9275697,5.9294493 6.8881836,6.2731934 L 5.4970703,6.0368652 C 5.5937494,5.5606346 5.7396639,5.1801825 5.9348145,4.8955078 6.129963,4.6108471 6.4020982,4.3870518 6.7512207,4.2241211 7.1003397,4.0612057 7.4915339,3.9797442 7.9248047,3.9797363 c 0.7412072,7.9e-6 1.3356077,0.2363358 1.7832031,0.7089844 0.3688102,0.3867256 0.5532172,0.8235741 0.5532222,1.3105469 -5e-6,0.6910859 -0.3777714,1.2425176 -1.1333003,1.6542969 0.4511673,0.096684 0.8119254,0.3133177 1.0822753,0.6499023 0.27034,0.3365918 0.405512,0.7430041 0.405518,1.2192383 -6e-6,0.6910819 -0.252447,1.2801119 -0.7573246,1.7670899 -0.5048872,0.486979 -1.1333045,0.730469 -1.8852539,0.730469 -0.7125674,0 -1.3033871,-0.204997 -1.7724609,-0.614991 C 5.7316073,10.995281 5.4594722,10.459067 5.3842773,9.7966309 z" />
</svg>
